<svg width="24" height="24" viewBox="0 0 24 24" fill="none" xmlns="http://www.w3.org/2000/svg">
<g clip-path="url(#clip0_43_850)">
<path d="M11.446 1.93193C11.651 1.43916 12.349 1.43916 12.554 1.93193L15.0333 7.89291C15.1197 8.10065 15.3151 8.24259 15.5393 8.26057L21.9747 8.77649C22.5067 8.81914 22.7224 9.48304 22.3171 9.83025L17.414 14.0303C17.2432 14.1766 17.1685 14.4063 17.2207 14.6251L18.7187 20.905C18.8425 21.4241 18.2778 21.8344 17.8223 21.5562L12.3128 18.191C12.1207 18.0737 11.8793 18.0737 11.6872 18.191L6.17767 21.5562C5.72221 21.8344 5.15746 21.4241 5.28129 20.905L6.77926 14.6251C6.83147 14.4063 6.75684 14.1766 6.58597 14.0303L1.68289 9.83025C1.27757 9.48304 1.49329 8.81914 2.02528 8.77649L8.46065 8.26057C8.68493 8.24259 8.88029 8.10065 8.9667 7.89291L11.446 1.93193Z" fill="#D4D4D8"/>
</g>
<defs>
<clipPath id="clip0_43_850">
<rect width="24" height="24" fill="white"/>
</clipPath>
</defs>
</svg>
